<mxfile host="app.diagrams.net" agent="Mozilla/5.0 (Macintosh; Intel Mac OS X 10_15_7) AppleWebKit/537.36 (KHTML, like Gecko) Chrome/130.0.0.0 Safari/537.36" version="24.8.3">
  <diagram name="Page-1" id="0f7KHFafE-V0J24hBFIs">
    <mxGraphModel dx="954" dy="639" grid="1" gridSize="10" guides="1" tooltips="1" connect="1" arrows="1" fold="1" page="1" pageScale="1" pageWidth="850" pageHeight="1100" math="0" shadow="0">
      <root>
        <mxCell id="0" />
        <mxCell id="1" parent="0" />
        <mxCell id="QFjsv-y2yEeL_6X1IgyE-1" value="_strings,&lt;div&gt;NumberOfStrings&lt;/div&gt;" style="shape=parallelogram;perimeter=parallelogramPerimeter;whiteSpace=wrap;html=1;fixedSize=1;fontStyle=1" vertex="1" parent="1">
          <mxGeometry x="320" y="60" width="130" height="60" as="geometry" />
        </mxCell>
        <mxCell id="QFjsv-y2yEeL_6X1IgyE-2" value="i = 0, sb = &#39;{&#39;" style="rounded=0;whiteSpace=wrap;html=1;fontStyle=1" vertex="1" parent="1">
          <mxGeometry x="325" y="160" width="100" height="40" as="geometry" />
        </mxCell>
        <mxCell id="QFjsv-y2yEeL_6X1IgyE-3" value="" style="ellipse;whiteSpace=wrap;html=1;aspect=fixed;" vertex="1" parent="1">
          <mxGeometry x="360" y="230" width="30" height="30" as="geometry" />
        </mxCell>
        <mxCell id="QFjsv-y2yEeL_6X1IgyE-5" value="&lt;div&gt;&lt;br&gt;&lt;/div&gt;i&amp;lt;NumberOfStrings&lt;div&gt;&lt;br&gt;&lt;/div&gt;" style="rhombus;whiteSpace=wrap;html=1;fontStyle=1" vertex="1" parent="1">
          <mxGeometry x="310" y="300" width="135" height="100" as="geometry" />
        </mxCell>
        <mxCell id="QFjsv-y2yEeL_6X1IgyE-6" value="sb.Append(_strings[i])" style="rounded=0;whiteSpace=wrap;html=1;fontStyle=1" vertex="1" parent="1">
          <mxGeometry x="312.5" y="440" width="135" height="40" as="geometry" />
        </mxCell>
        <mxCell id="QFjsv-y2yEeL_6X1IgyE-7" value="&lt;div&gt;&lt;br&gt;&lt;/div&gt;i&amp;lt;NumberOfStrings -1&lt;div&gt;&lt;br&gt;&lt;/div&gt;" style="rhombus;whiteSpace=wrap;html=1;fontStyle=1" vertex="1" parent="1">
          <mxGeometry x="305" y="520" width="150" height="110" as="geometry" />
        </mxCell>
        <mxCell id="QFjsv-y2yEeL_6X1IgyE-8" value="sb.Append(&quot;,&quot;)" style="rounded=0;whiteSpace=wrap;html=1;fontStyle=1" vertex="1" parent="1">
          <mxGeometry x="307.5" y="670" width="135" height="40" as="geometry" />
        </mxCell>
        <mxCell id="QFjsv-y2yEeL_6X1IgyE-9" value="" style="ellipse;whiteSpace=wrap;html=1;aspect=fixed;" vertex="1" parent="1">
          <mxGeometry x="360" y="750" width="30" height="30" as="geometry" />
        </mxCell>
        <mxCell id="QFjsv-y2yEeL_6X1IgyE-10" value="i++" style="rounded=0;whiteSpace=wrap;html=1;fontStyle=1" vertex="1" parent="1">
          <mxGeometry x="447.5" y="745" width="80" height="40" as="geometry" />
        </mxCell>
        <mxCell id="QFjsv-y2yEeL_6X1IgyE-11" value="sb.Append(&quot;}&quot;)" style="rounded=0;whiteSpace=wrap;html=1;fontStyle=1" vertex="1" parent="1">
          <mxGeometry x="150" y="330" width="100" height="40" as="geometry" />
        </mxCell>
        <mxCell id="QFjsv-y2yEeL_6X1IgyE-12" value="Return sb string" style="rounded=0;whiteSpace=wrap;html=1;fontStyle=1" vertex="1" parent="1">
          <mxGeometry x="150" y="440" width="100" height="40" as="geometry" />
        </mxCell>
        <mxCell id="QFjsv-y2yEeL_6X1IgyE-13" value="" style="endArrow=classic;html=1;rounded=0;entryX=0.5;entryY=0;entryDx=0;entryDy=0;exitX=0.433;exitY=0.983;exitDx=0;exitDy=0;exitPerimeter=0;" edge="1" parent="1" source="QFjsv-y2yEeL_6X1IgyE-1" target="QFjsv-y2yEeL_6X1IgyE-2">
          <mxGeometry width="50" height="50" relative="1" as="geometry">
            <mxPoint x="390" y="120" as="sourcePoint" />
            <mxPoint x="440" y="70" as="targetPoint" />
          </mxGeometry>
        </mxCell>
        <mxCell id="QFjsv-y2yEeL_6X1IgyE-14" value="" style="endArrow=classic;html=1;rounded=0;entryX=0.5;entryY=0;entryDx=0;entryDy=0;" edge="1" parent="1" target="QFjsv-y2yEeL_6X1IgyE-3">
          <mxGeometry width="50" height="50" relative="1" as="geometry">
            <mxPoint x="375" y="200" as="sourcePoint" />
            <mxPoint x="427" y="150" as="targetPoint" />
          </mxGeometry>
        </mxCell>
        <mxCell id="QFjsv-y2yEeL_6X1IgyE-16" value="" style="endArrow=classic;html=1;rounded=0;exitX=0.5;exitY=1;exitDx=0;exitDy=0;" edge="1" parent="1" source="QFjsv-y2yEeL_6X1IgyE-3" target="QFjsv-y2yEeL_6X1IgyE-5">
          <mxGeometry width="50" height="50" relative="1" as="geometry">
            <mxPoint x="410" y="290" as="sourcePoint" />
            <mxPoint x="460" y="240" as="targetPoint" />
          </mxGeometry>
        </mxCell>
        <mxCell id="QFjsv-y2yEeL_6X1IgyE-19" value="" style="endArrow=classic;html=1;rounded=0;entryX=1;entryY=0.5;entryDx=0;entryDy=0;exitX=0;exitY=0.5;exitDx=0;exitDy=0;" edge="1" parent="1" source="QFjsv-y2yEeL_6X1IgyE-5" target="QFjsv-y2yEeL_6X1IgyE-11">
          <mxGeometry width="50" height="50" relative="1" as="geometry">
            <mxPoint x="270" y="380" as="sourcePoint" />
            <mxPoint x="320" y="330" as="targetPoint" />
          </mxGeometry>
        </mxCell>
        <mxCell id="QFjsv-y2yEeL_6X1IgyE-20" value="" style="endArrow=classic;html=1;rounded=0;exitX=0.5;exitY=1;exitDx=0;exitDy=0;" edge="1" parent="1" source="QFjsv-y2yEeL_6X1IgyE-11" target="QFjsv-y2yEeL_6X1IgyE-12">
          <mxGeometry width="50" height="50" relative="1" as="geometry">
            <mxPoint x="220" y="440" as="sourcePoint" />
            <mxPoint x="270" y="390" as="targetPoint" />
          </mxGeometry>
        </mxCell>
        <mxCell id="QFjsv-y2yEeL_6X1IgyE-21" value="" style="endArrow=classic;html=1;rounded=0;entryX=0.5;entryY=0;entryDx=0;entryDy=0;" edge="1" parent="1" target="QFjsv-y2yEeL_6X1IgyE-6">
          <mxGeometry width="50" height="50" relative="1" as="geometry">
            <mxPoint x="380" y="400" as="sourcePoint" />
            <mxPoint x="430" y="350" as="targetPoint" />
          </mxGeometry>
        </mxCell>
        <mxCell id="QFjsv-y2yEeL_6X1IgyE-22" value="" style="endArrow=classic;html=1;rounded=0;exitX=0.5;exitY=1;exitDx=0;exitDy=0;" edge="1" parent="1" source="QFjsv-y2yEeL_6X1IgyE-6" target="QFjsv-y2yEeL_6X1IgyE-7">
          <mxGeometry width="50" height="50" relative="1" as="geometry">
            <mxPoint x="450" y="520" as="sourcePoint" />
            <mxPoint x="500" y="470" as="targetPoint" />
          </mxGeometry>
        </mxCell>
        <mxCell id="QFjsv-y2yEeL_6X1IgyE-23" value="" style="endArrow=classic;html=1;rounded=0;exitX=0.5;exitY=1;exitDx=0;exitDy=0;" edge="1" parent="1" source="QFjsv-y2yEeL_6X1IgyE-7">
          <mxGeometry width="50" height="50" relative="1" as="geometry">
            <mxPoint x="390" y="650" as="sourcePoint" />
            <mxPoint x="380" y="670" as="targetPoint" />
          </mxGeometry>
        </mxCell>
        <mxCell id="QFjsv-y2yEeL_6X1IgyE-25" value="" style="endArrow=classic;html=1;rounded=0;entryX=0;entryY=0.5;entryDx=0;entryDy=0;exitX=1;exitY=0.5;exitDx=0;exitDy=0;" edge="1" parent="1" source="QFjsv-y2yEeL_6X1IgyE-9" target="QFjsv-y2yEeL_6X1IgyE-10">
          <mxGeometry width="50" height="50" relative="1" as="geometry">
            <mxPoint x="380" y="770" as="sourcePoint" />
            <mxPoint x="430" y="720" as="targetPoint" />
          </mxGeometry>
        </mxCell>
        <mxCell id="QFjsv-y2yEeL_6X1IgyE-28" value="" style="endArrow=classic;html=1;rounded=0;entryX=0.5;entryY=0;entryDx=0;entryDy=0;exitX=0.5;exitY=1;exitDx=0;exitDy=0;" edge="1" parent="1" source="QFjsv-y2yEeL_6X1IgyE-8" target="QFjsv-y2yEeL_6X1IgyE-9">
          <mxGeometry width="50" height="50" relative="1" as="geometry">
            <mxPoint x="380" y="710" as="sourcePoint" />
            <mxPoint x="420" y="670" as="targetPoint" />
          </mxGeometry>
        </mxCell>
        <mxCell id="QFjsv-y2yEeL_6X1IgyE-29" value="" style="endArrow=classic;html=1;rounded=0;entryX=0;entryY=0.5;entryDx=0;entryDy=0;exitX=0;exitY=0.5;exitDx=0;exitDy=0;" edge="1" parent="1" source="QFjsv-y2yEeL_6X1IgyE-7" target="QFjsv-y2yEeL_6X1IgyE-9">
          <mxGeometry width="50" height="50" relative="1" as="geometry">
            <mxPoint x="200" y="610" as="sourcePoint" />
            <mxPoint x="250" y="560" as="targetPoint" />
            <Array as="points">
              <mxPoint x="240" y="575" />
              <mxPoint x="240" y="670" />
              <mxPoint x="240" y="765" />
            </Array>
          </mxGeometry>
        </mxCell>
        <mxCell id="QFjsv-y2yEeL_6X1IgyE-30" value="" style="endArrow=classic;html=1;rounded=0;entryX=1;entryY=0.5;entryDx=0;entryDy=0;" edge="1" parent="1" target="QFjsv-y2yEeL_6X1IgyE-3">
          <mxGeometry width="50" height="50" relative="1" as="geometry">
            <mxPoint x="490" y="740" as="sourcePoint" />
            <mxPoint x="610" y="320" as="targetPoint" />
            <Array as="points">
              <mxPoint x="480" y="245" />
            </Array>
          </mxGeometry>
        </mxCell>
        <mxCell id="QFjsv-y2yEeL_6X1IgyE-32" value="&lt;b&gt;True&lt;/b&gt;" style="text;html=1;align=center;verticalAlign=middle;whiteSpace=wrap;rounded=0;" vertex="1" parent="1">
          <mxGeometry x="369.5" y="630" width="60" height="30" as="geometry" />
        </mxCell>
        <mxCell id="QFjsv-y2yEeL_6X1IgyE-33" value="&lt;b&gt;True&lt;/b&gt;" style="text;html=1;align=center;verticalAlign=middle;whiteSpace=wrap;rounded=0;" vertex="1" parent="1">
          <mxGeometry x="370" y="400" width="60" height="30" as="geometry" />
        </mxCell>
        <mxCell id="QFjsv-y2yEeL_6X1IgyE-34" value="&lt;b&gt;False&lt;/b&gt;" style="text;html=1;align=center;verticalAlign=middle;whiteSpace=wrap;rounded=0;" vertex="1" parent="1">
          <mxGeometry x="249" y="548" width="60" height="30" as="geometry" />
        </mxCell>
        <mxCell id="QFjsv-y2yEeL_6X1IgyE-35" value="&lt;b&gt;False&lt;/b&gt;" style="text;html=1;align=center;verticalAlign=middle;whiteSpace=wrap;rounded=0;" vertex="1" parent="1">
          <mxGeometry x="252.5" y="317" width="60" height="30" as="geometry" />
        </mxCell>
        <mxCell id="QFjsv-y2yEeL_6X1IgyE-36" value="&lt;b&gt;1&lt;/b&gt;" style="text;html=1;align=center;verticalAlign=middle;whiteSpace=wrap;rounded=0;" vertex="1" parent="1">
          <mxGeometry x="443.5" y="80" width="32.5" height="10" as="geometry" />
        </mxCell>
        <mxCell id="QFjsv-y2yEeL_6X1IgyE-38" value="&lt;b&gt;2&lt;/b&gt;" style="text;html=1;align=center;verticalAlign=middle;whiteSpace=wrap;rounded=0;" vertex="1" parent="1">
          <mxGeometry x="430" y="175" width="32.5" height="10" as="geometry" />
        </mxCell>
        <mxCell id="QFjsv-y2yEeL_6X1IgyE-40" value="&lt;b&gt;3&lt;/b&gt;" style="text;html=1;align=center;verticalAlign=middle;whiteSpace=wrap;rounded=0;" vertex="1" parent="1">
          <mxGeometry x="417.5" y="317" width="32.5" height="10" as="geometry" />
        </mxCell>
        <mxCell id="QFjsv-y2yEeL_6X1IgyE-41" value="&lt;b&gt;4&lt;/b&gt;" style="text;html=1;align=center;verticalAlign=middle;whiteSpace=wrap;rounded=0;" vertex="1" parent="1">
          <mxGeometry x="440" y="450" width="32.5" height="10" as="geometry" />
        </mxCell>
        <mxCell id="QFjsv-y2yEeL_6X1IgyE-42" value="&lt;b&gt;5&lt;/b&gt;" style="text;html=1;align=center;verticalAlign=middle;whiteSpace=wrap;rounded=0;" vertex="1" parent="1">
          <mxGeometry x="430" y="545" width="32.5" height="10" as="geometry" />
        </mxCell>
        <mxCell id="QFjsv-y2yEeL_6X1IgyE-43" value="&lt;b&gt;6&lt;/b&gt;" style="text;html=1;align=center;verticalAlign=middle;whiteSpace=wrap;rounded=0;" vertex="1" parent="1">
          <mxGeometry x="430" y="655" width="32.5" height="10" as="geometry" />
        </mxCell>
        <mxCell id="QFjsv-y2yEeL_6X1IgyE-44" value="&lt;b&gt;7&lt;/b&gt;" style="text;html=1;align=center;verticalAlign=middle;whiteSpace=wrap;rounded=0;" vertex="1" parent="1">
          <mxGeometry x="500" y="730" width="32.5" height="5" as="geometry" />
        </mxCell>
        <mxCell id="QFjsv-y2yEeL_6X1IgyE-47" value="&lt;b&gt;9&lt;/b&gt;" style="text;html=1;align=center;verticalAlign=middle;whiteSpace=wrap;rounded=0;" vertex="1" parent="1">
          <mxGeometry x="140" y="425" width="32.5" height="5" as="geometry" />
        </mxCell>
        <mxCell id="QFjsv-y2yEeL_6X1IgyE-48" value="&lt;b&gt;8&lt;/b&gt;" style="text;html=1;align=center;verticalAlign=middle;whiteSpace=wrap;rounded=0;" vertex="1" parent="1">
          <mxGeometry x="140" y="312" width="32.5" height="5" as="geometry" />
        </mxCell>
      </root>
    </mxGraphModel>
  </diagram>
</mxfile>
